<?xml version="1.0" standalone="no"?>
<!DOCTYPE svg PUBLIC "-//W3C//DTD SVG 20010904//EN"
 "http://www.w3.org/TR/2001/REC-SVG-20010904/DTD/svg10.dtd">
<svg version="1.0" xmlns="http://www.w3.org/2000/svg"
 width="50.000000pt" height="50.000000pt" viewBox="0 0 50.000000 50.000000"
 preserveAspectRatio="xMidYMid meet">

<g transform="translate(0.000000,50.000000) scale(0.100000,-0.100000)"
fill="#000000" stroke="none">
<path d="M175 481 c-68 -31 -105 -93 -105 -176 l0 -45 180 0 180 0 0 48 c0 51
-26 117 -56 144 -29 25 -89 48 -126 48 -18 0 -51 -9 -73 -19z m105 -56 c25
-26 21 -47 -5 -25 -13 11 -15 7 -15 -30 0 -37 2 -41 15 -30 28 23 29 0 2 -28
l-27 -27 -27 27 c-27 28 -26 51 2 28 13 -11 15 -7 15 30 0 37 -2 41 -15 30
-26 -22 -30 -1 -5 25 13 14 26 25 30 25 4 0 17 -11 30 -25z"/>
<path d="M70 192 c0 -91 63 -172 146 -188 112 -21 214 68 214 188 l0 48 -180
0 -180 0 0 -48z"/>
</g>
</svg>
